{"title":"Tenderness.2009.DVDRip.XViD.SWESUB.avi","uid":5513968,"size":740297984,"categoryP":"video","categoryS":"movies","magnet":"?xt=urn:btih:f23aad5bc60587ef1f0941f9e3262b9a45a20731&amp;dn=Tenderness.2009.DVDRip.XViD.SWESUB.avi&amp;tr=udp%3A%2F%2Ftracker.openbittorrent.com%3A80&amp;tr=udp%3A%2F%2Fopen.demonii.com%3A1337&amp;tr=udp%3A%2F%2Ftracker.coppersurfer.tk%3A6969&amp;tr=udp%3A%2F%2Fexodus.desync.com%3A6969","seeders":1,"leechers":1,"uploader":"Zen_Bud","files":-1,"time":1272183175,"description":"General\nComplete name                    : Tenderness.avi\nFormat                           : AVI\nFormat/Info                      : Audio Video Interleave\nFile size                        : 706 MiB\nDuration                         : 1h 36mn\nOverall bit rate                 : 1 020 Kbps\n\nVideo\nID                               : 0\nFormat                           : MPEG-4 Visual\nCodec ID/Hint                    : XviD\nDuration                         : 1h 36mn\nBit rate                         : 879 Kbps\nWidth                            : 720 pixels\nHeight                           : 436 pixels\nDisplay aspect ratio             : 2.35:1\nResolution                       : 8 bits\nColorimetry                      : 4:2:0\nScan type                        : Progressive\nBits/(Pixel*Frame)               : 0.112\nStream size                      : 608 MiB (86%)\nWriting library                  : XviD 1.1.2 (UTC 2006-11-01)\n\nAudio\nID                               : 1\nFormat                           : MPEG Audio\nFormat version                   : Version 1\nFormat profile                   : Layer 3\nMode                             : Joint stereo\nCodec ID                         : 55\nCodec ID/Hint                    : MP3\nDuration                         : 1h 36mn\nBit rate mode                    : Constant\nBit rate                         : 128 Kbps\nChannel(s)                       : 2 channels\nSampling rate                    : 48.0 KHz\nStream size                      : 88.6 MiB (13%)\n\n\n","torrent":{"xt":"urn:btih:f23aad5bc60587ef1f0941f9e3262b9a45a20731","amp;dn":"Tenderness.2009.DVDRip.XViD.SWESUB.avi","amp;tr":["udp%3A%2F%2Ftracker.openbittorrent.com%3A80","udp%3A%2F%2Fopen.demonii.com%3A1337","udp%3A%2F%2Ftracker.coppersurfer.tk%3A6969","udp%3A%2F%2Fexodus.desync.com%3A6969"],"infoHash":"f23aad5bc60587ef1f0941f9e3262b9a45a20731","infoHashBuffer":{"type":"Buffer","data":[242,58,173,91,198,5,135,239,31,9,65,249,227,38,43,154,69,162,7,49]},"announce":[],"urlList":[]}}